<svg width="52" height="32" viewBox="0 0 52 32" fill="none" xmlns="http://www.w3.org/2000/svg">
<rect width="52" height="32" rx="10" fill="#192966"/>
<path d="M35 16C34.7348 16 34.4804 16.1054 34.2929 16.2929C34.1054 16.4804 34 16.7348 34 17V23C34 23.2652 33.8946 23.5196 33.7071 23.7071C33.5196 23.8946 33.2652 24 33 24H19C18.7348 24 18.4804 23.8946 18.2929 23.7071C18.1054 23.5196 18 23.2652 18 23V9C18 8.73478 18.1054 8.48043 18.2929 8.29289C18.4804 8.10536 18.7348 8 19 8H25C25.2652 8 25.5196 7.89464 25.7071 7.70711C25.8946 7.51957 26 7.26522 26 7C26 6.73478 25.8946 6.48043 25.7071 6.29289C25.5196 6.10536 25.2652 6 25 6H19C18.2044 6 17.4413 6.31607 16.8787 6.87868C16.3161 7.44129 16 8.20435 16 9V23C16 23.7956 16.3161 24.5587 16.8787 25.1213C17.4413 25.6839 18.2044 26 19 26H33C33.7956 26 34.5587 25.6839 35.1213 25.1213C35.6839 24.5587 36 23.7956 36 23V17C36 16.7348 35.8946 16.4804 35.7071 16.2929C35.5196 16.1054 35.2652 16 35 16ZM20 16.76V21C20 21.2652 20.1054 21.5196 20.2929 21.7071C20.4804 21.8946 20.7348 22 21 22H25.24C25.3716 22.0008 25.5021 21.9755 25.6239 21.9258C25.7457 21.876 25.8566 21.8027 25.95 21.71L32.87 14.78L35.71 12C35.8037 11.907 35.8781 11.7964 35.9289 11.6746C35.9797 11.5527 36.0058 11.422 36.0058 11.29C36.0058 11.158 35.9797 11.0273 35.9289 10.9054C35.8781 10.7836 35.8037 10.673 35.71 10.58L31.47 6.29C31.377 6.19627 31.2664 6.12188 31.1446 6.07111C31.0227 6.02034 30.892 5.9942 30.76 5.9942C30.628 5.9942 30.4973 6.02034 30.3754 6.07111C30.2536 6.12188 30.143 6.19627 30.05 6.29L27.23 9.12L20.29 16.05C20.1973 16.1434 20.124 16.2543 20.0742 16.3761C20.0245 16.4979 19.9992 16.6284 20 16.76ZM30.76 8.41L33.59 11.24L32.17 12.66L29.34 9.83L30.76 8.41ZM22 17.17L27.93 11.24L30.76 14.07L24.83 20H22V17.17Z" fill="white"/>
</svg>
