<svg width="52" height="32" viewBox="0 0 52 32" fill="none" xmlns="http://www.w3.org/2000/svg">
<rect width="52" height="32" rx="10" fill="#192966"/>
<g clip-path="url(#clip0_1423_879)">
<path d="M20 15C19.8022 15 19.6089 15.0586 19.4444 15.1685C19.28 15.2784 19.1518 15.4346 19.0761 15.6173C19.0004 15.8 18.9806 16.0011 19.0192 16.1951C19.0578 16.3891 19.153 16.5673 19.2929 16.7071C19.4327 16.847 19.6109 16.9422 19.8049 16.9808C19.9989 17.0194 20.2 16.9996 20.3827 16.9239C20.5654 16.8482 20.7216 16.72 20.8315 16.5556C20.9414 16.3911 21 16.1978 21 16C21 15.7348 20.8946 15.4804 20.7071 15.2929C20.5196 15.1054 20.2652 15 20 15ZM32 15C31.8022 15 31.6089 15.0586 31.4444 15.1685C31.28 15.2784 31.1518 15.4346 31.0761 15.6173C31.0004 15.8 30.9806 16.0011 31.0192 16.1951C31.0578 16.3891 31.153 16.5673 31.2929 16.7071C31.4327 16.847 31.6109 16.9422 31.8049 16.9808C31.9989 17.0194 32.2 16.9996 32.3827 16.9239C32.5654 16.8482 32.7216 16.72 32.8315 16.5556C32.9414 16.3911 33 16.1978 33 16C33 15.7348 32.8946 15.4804 32.7071 15.2929C32.5196 15.1054 32.2652 15 32 15ZM34 9H18C17.2044 9 16.4413 9.31607 15.8787 9.87868C15.3161 10.4413 15 11.2044 15 12V20C15 20.7956 15.3161 21.5587 15.8787 22.1213C16.4413 22.6839 17.2044 23 18 23H34C34.7956 23 35.5587 22.6839 36.1213 22.1213C36.6839 21.5587 37 20.7956 37 20V12C37 11.2044 36.6839 10.4413 36.1213 9.87868C35.5587 9.31607 34.7956 9 34 9ZM35 20C35 20.2652 34.8946 20.5196 34.7071 20.7071C34.5196 20.8946 34.2652 21 34 21H18C17.7348 21 17.4804 20.8946 17.2929 20.7071C17.1054 20.5196 17 20.2652 17 20V12C17 11.7348 17.1054 11.4804 17.2929 11.2929C17.4804 11.1054 17.7348 11 18 11H34C34.2652 11 34.5196 11.1054 34.7071 11.2929C34.8946 11.4804 35 11.7348 35 12V20ZM26 13C25.4067 13 24.8266 13.1759 24.3333 13.5056C23.8399 13.8352 23.4554 14.3038 23.2284 14.8519C23.0013 15.4001 22.9419 16.0033 23.0576 16.5853C23.1734 17.1672 23.4591 17.7018 23.8787 18.1213C24.2982 18.5409 24.8328 18.8266 25.4147 18.9424C25.9967 19.0581 26.5999 18.9987 27.1481 18.7716C27.6962 18.5446 28.1648 18.1601 28.4944 17.6667C28.8241 17.1734 29 16.5933 29 16C29 15.2044 28.6839 14.4413 28.1213 13.8787C27.5587 13.3161 26.7956 13 26 13ZM26 17C25.8022 17 25.6089 16.9414 25.4444 16.8315C25.28 16.7216 25.1518 16.5654 25.0761 16.3827C25.0004 16.2 24.9806 15.9989 25.0192 15.8049C25.0578 15.6109 25.153 15.4327 25.2929 15.2929C25.4327 15.153 25.6109 15.0578 25.8049 15.0192C25.9989 14.9806 26.2 15.0004 26.3827 15.0761C26.5654 15.1518 26.7216 15.28 26.8315 15.4444C26.9414 15.6089 27 15.8022 27 16C27 16.2652 26.8946 16.5196 26.7071 16.7071C26.5196 16.8946 26.2652 17 26 17Z" fill="white"/>
</g>
<defs>
<clipPath id="clip0_1423_879">
<rect width="24" height="24" fill="white" transform="translate(14 4)"/>
</clipPath>
</defs>
</svg>
