<svg width="52" height="32" viewBox="0 0 52 32" fill="none" xmlns="http://www.w3.org/2000/svg">
<rect width="52" height="32" rx="10" fill="#192966"/>
<path d="M17.62 21.28C17.7182 21.5267 17.9103 21.7242 18.1541 21.8292C18.3978 21.9343 18.6734 21.9381 18.92 21.84C19.1667 21.7419 19.3642 21.5498 19.4693 21.306C19.5743 21.0622 19.5782 20.7867 19.48 20.54L18.36 17.72L25 16.25V21C25 21.2652 25.1054 21.5196 25.2929 21.7071C25.4805 21.8946 25.7348 22 26 22C26.2652 22 26.5196 21.8946 26.7071 21.7071C26.8947 21.5196 27 21.2652 27 21V16.25L33.64 17.72L32.52 20.54C32.4713 20.6621 32.4472 20.7926 32.449 20.9241C32.4507 21.0556 32.4784 21.1854 32.5304 21.3061C32.5825 21.4269 32.6578 21.5362 32.7521 21.6278C32.8464 21.7194 32.9578 21.7915 33.08 21.84C33.1978 21.8866 33.3234 21.9103 33.45 21.91C33.6503 21.9102 33.846 21.8502 34.0118 21.7379C34.1777 21.6256 34.3059 21.4661 34.38 21.28L35.93 17.37C35.9832 17.2348 36.0063 17.0896 35.9977 16.9445C35.9891 16.7994 35.9489 16.658 35.88 16.53C35.8132 16.4025 35.7196 16.2909 35.6057 16.2029C35.4918 16.1149 35.3603 16.0525 35.22 16.02L32 15.31V11C32 10.7348 31.8947 10.4804 31.7071 10.2929C31.5196 10.1054 31.2652 10 31 10H29V7C29 6.73478 28.8947 6.48043 28.7071 6.29289C28.5196 6.10536 28.2652 6 28 6H24C23.7348 6 23.4805 6.10536 23.2929 6.29289C23.1054 6.48043 23 6.73478 23 7V10H21C20.7348 10 20.4805 10.1054 20.2929 10.2929C20.1054 10.4804 20 10.7348 20 11V15.31L16.78 16C16.6398 16.0325 16.5082 16.0949 16.3943 16.1829C16.2804 16.2709 16.1869 16.3825 16.12 16.51C16.0512 16.638 16.011 16.7794 16.0024 16.9245C15.9937 17.0696 16.0168 17.2148 16.07 17.35L17.62 21.28ZM25 8H27V10H25V8ZM22 12H30V14.86L26.22 14H26.12H26H25.88H25.78L22 14.86V12ZM34.71 23.28C34.3592 23.3875 34.0232 23.5387 33.71 23.73C33.3915 23.9163 33.0291 24.0145 32.66 24.0145C32.291 24.0145 31.9286 23.9163 31.61 23.73C30.9173 23.3392 30.1354 23.1339 29.34 23.1339C28.5447 23.1339 27.7628 23.3392 27.07 23.73C26.7471 23.9141 26.3818 24.011 26.01 24.011C25.6383 24.011 25.273 23.9141 24.95 23.73C24.2567 23.3411 23.475 23.1368 22.68 23.1368C21.885 23.1368 21.1034 23.3411 20.41 23.73C20.0915 23.9163 19.7291 24.0145 19.36 24.0145C18.991 24.0145 18.6286 23.9163 18.31 23.73C17.9969 23.5387 17.6609 23.3875 17.31 23.28C17.177 23.2327 17.0354 23.2141 16.8946 23.2255C16.7539 23.2368 16.6171 23.2778 16.4934 23.3459C16.3696 23.4139 16.2617 23.5073 16.1766 23.6201C16.0916 23.7328 16.0314 23.8623 16 24C15.9254 24.2533 15.9539 24.5258 16.0794 24.7581C16.205 24.9904 16.4173 25.1636 16.67 25.24C16.8714 25.2946 17.0635 25.3788 17.24 25.49C17.8467 25.846 18.5366 26.0357 19.24 26.04C19.9706 26.0401 20.6883 25.8469 21.32 25.48C21.712 25.2638 22.1524 25.1504 22.6 25.1504C23.0477 25.1504 23.4881 25.2638 23.88 25.48C24.5073 25.8387 25.2174 26.0274 25.94 26.0274C26.6626 26.0274 27.3727 25.8387 28 25.48C28.392 25.2638 28.8324 25.1504 29.28 25.1504C29.7277 25.1504 30.1681 25.2638 30.56 25.48C31.1798 25.8499 31.8882 26.0453 32.61 26.0453C33.3318 26.0453 34.0402 25.8499 34.66 25.48C34.8366 25.3688 35.0287 25.2846 35.23 25.23C35.3631 25.2031 35.4893 25.1493 35.601 25.0721C35.7126 24.9948 35.8073 24.8956 35.8794 24.7805C35.9514 24.6654 35.9993 24.5368 36.02 24.4027C36.0408 24.2685 36.034 24.1315 36 24C35.9683 23.8647 35.9086 23.7374 35.8249 23.6265C35.7412 23.5155 35.6353 23.4232 35.5139 23.3554C35.3925 23.2877 35.2583 23.246 35.1199 23.233C34.9815 23.22 34.8419 23.236 34.71 23.28Z" fill="white"/>
</svg>
