<svg width="52" height="32" viewBox="0 0 52 32" fill="none" xmlns="http://www.w3.org/2000/svg">
<rect width="52" height="32" rx="10" fill="#192966"/>
<path d="M24 17H17C16.7348 17 16.4804 17.1054 16.2929 17.2929C16.1054 17.4804 16 17.7348 16 18V25C16 25.2652 16.1054 25.5196 16.2929 25.7071C16.4804 25.8946 16.7348 26 17 26H24C24.2652 26 24.5196 25.8946 24.7071 25.7071C24.8946 25.5196 25 25.2652 25 25V18C25 17.7348 24.8946 17.4804 24.7071 17.2929C24.5196 17.1054 24.2652 17 24 17ZM23 24H18V19H23V24ZM35 6H28C27.7348 6 27.4804 6.10536 27.2929 6.29289C27.1054 6.48043 27 6.73478 27 7V14C27 14.2652 27.1054 14.5196 27.2929 14.7071C27.4804 14.8946 27.7348 15 28 15H35C35.2652 15 35.5196 14.8946 35.7071 14.7071C35.8946 14.5196 36 14.2652 36 14V7C36 6.73478 35.8946 6.48043 35.7071 6.29289C35.5196 6.10536 35.2652 6 35 6V6ZM34 13H29V8H34V13ZM35 17H28C27.7348 17 27.4804 17.1054 27.2929 17.2929C27.1054 17.4804 27 17.7348 27 18V25C27 25.2652 27.1054 25.5196 27.2929 25.7071C27.4804 25.8946 27.7348 26 28 26H35C35.2652 26 35.5196 25.8946 35.7071 25.7071C35.8946 25.5196 36 25.2652 36 25V18C36 17.7348 35.8946 17.4804 35.7071 17.2929C35.5196 17.1054 35.2652 17 35 17ZM34 24H29V19H34V24ZM24 6H17C16.7348 6 16.4804 6.10536 16.2929 6.29289C16.1054 6.48043 16 6.73478 16 7V14C16 14.2652 16.1054 14.5196 16.2929 14.7071C16.4804 14.8946 16.7348 15 17 15H24C24.2652 15 24.5196 14.8946 24.7071 14.7071C24.8946 14.5196 25 14.2652 25 14V7C25 6.73478 24.8946 6.48043 24.7071 6.29289C24.5196 6.10536 24.2652 6 24 6V6ZM23 13H18V8H23V13Z" fill="#FAFAFA"/>
</svg>
