<svg width="54" height="58" viewBox="0 0 54 58" fill="none" xmlns="http://www.w3.org/2000/svg">
<rect width="54" height="58" rx="10" fill="#263C91"/>
<path d="M18.62 34.28C18.7181 34.5267 18.9102 34.7242 19.154 34.8292C19.3978 34.9343 19.6733 34.9381 19.92 34.84C20.1666 34.7419 20.3642 34.5498 20.4692 34.306C20.5742 34.0622 20.5781 33.7867 20.48 33.54L19.36 30.72L26 29.25V34C26 34.2652 26.1053 34.5196 26.2929 34.7071C26.4804 34.8946 26.7348 35 27 35C27.2652 35 27.5195 34.8946 27.7071 34.7071C27.8946 34.5196 28 34.2652 28 34V29.25L34.64 30.72L33.52 33.54C33.4713 33.6621 33.4471 33.7926 33.4489 33.9241C33.4507 34.0556 33.4784 34.1854 33.5304 34.3061C33.5824 34.4269 33.6577 34.5362 33.752 34.6278C33.8463 34.7194 33.9578 34.7915 34.08 34.84C34.1978 34.8866 34.3233 34.9103 34.45 34.91C34.6502 34.9102 34.846 34.8502 35.0118 34.7379C35.1776 34.6256 35.3059 34.4661 35.38 34.28L36.93 30.37C36.9832 30.2348 37.0063 30.0896 36.9976 29.9445C36.989 29.7994 36.9488 29.658 36.88 29.53C36.8131 29.4025 36.7196 29.2909 36.6057 29.2029C36.4918 29.1149 36.3602 29.0525 36.22 29.02L33 28.31V24C33 23.7348 32.8946 23.4804 32.7071 23.2929C32.5195 23.1054 32.2652 23 32 23H30V20C30 19.7348 29.8946 19.4804 29.7071 19.2929C29.5195 19.1054 29.2652 19 29 19H25C24.7348 19 24.4804 19.1054 24.2929 19.2929C24.1053 19.4804 24 19.7348 24 20V23H22C21.7348 23 21.4804 23.1054 21.2929 23.2929C21.1053 23.4804 21 23.7348 21 24V28.31L17.78 29C17.6397 29.0325 17.5082 29.0949 17.3943 29.1829C17.2804 29.2709 17.1868 29.3825 17.12 29.51C17.0511 29.638 17.0109 29.7794 17.0023 29.9245C16.9937 30.0696 17.0168 30.2148 17.07 30.35L18.62 34.28ZM26 21H28V23H26V21ZM23 25H31V27.86L27.22 27H27.12H27H26.88H26.78L23 27.86V25ZM35.71 36.28C35.3591 36.3875 35.0231 36.5387 34.71 36.73C34.3914 36.9163 34.029 37.0145 33.66 37.0145C33.2909 37.0145 32.9285 36.9163 32.61 36.73C31.9172 36.3392 31.1353 36.1339 30.34 36.1339C29.5446 36.1339 28.7627 36.3392 28.07 36.73C27.747 36.9141 27.3817 37.011 27.01 37.011C26.6382 37.011 26.2729 36.9141 25.95 36.73C25.2566 36.3411 24.475 36.1368 23.68 36.1368C22.885 36.1368 22.1033 36.3411 21.41 36.73C21.0914 36.9163 20.729 37.0145 20.36 37.0145C19.9909 37.0145 19.6285 36.9163 19.31 36.73C18.9968 36.5387 18.6608 36.3875 18.31 36.28C18.1769 36.2327 18.0353 36.2141 17.8946 36.2255C17.7538 36.2368 17.6171 36.2778 17.4933 36.3459C17.3695 36.4139 17.2616 36.5073 17.1766 36.6201C17.0915 36.7328 17.0314 36.8623 17 37C16.9253 37.2533 16.9539 37.5258 17.0794 37.7581C17.2049 37.9904 17.4172 38.1636 17.67 38.24C17.8713 38.2946 18.0634 38.3788 18.24 38.49C18.8467 38.846 19.5365 39.0357 20.24 39.04C20.9706 39.0401 21.6882 38.8469 22.32 38.48C22.7119 38.2638 23.1523 38.1504 23.6 38.1504C24.0476 38.1504 24.488 38.2638 24.88 38.48C25.5073 38.8387 26.2174 39.0274 26.94 39.0274C27.6626 39.0274 28.3727 38.8387 29 38.48C29.3919 38.2638 29.8323 38.1504 30.28 38.1504C30.7276 38.1504 31.168 38.2638 31.56 38.48C32.1798 38.8499 32.8882 39.0453 33.61 39.0453C34.3318 39.0453 35.0402 38.8499 35.66 38.48C35.8365 38.3688 36.0286 38.2846 36.23 38.23C36.3631 38.2031 36.4893 38.1493 36.6009 38.0721C36.7125 37.9948 36.8073 37.8956 36.8793 37.7805C36.9513 37.6654 36.9992 37.5368 37.0199 37.4027C37.0407 37.2685 37.0339 37.1315 37 37C36.9682 36.8647 36.9085 36.7374 36.8248 36.6265C36.7411 36.5155 36.6352 36.4232 36.5138 36.3554C36.3924 36.2877 36.2582 36.246 36.1198 36.233C35.9814 36.22 35.8418 36.236 35.71 36.28Z" fill="white"/>
</svg>
