<svg width="48" height="48" viewBox="0 0 48 48" fill="none" xmlns="http://www.w3.org/2000/svg">
<rect width="48" height="48" rx="10" fill="#EEEEEE"/>
<path d="M35.2816 25.5478C34.9504 25.5478 34.6042 25.4421 34.273 25.3666C33.6023 25.2184 32.9432 25.0216 32.3009 24.7778C31.6025 24.523 30.8349 24.5362 30.1456 24.8149C29.4564 25.0937 28.8943 25.6182 28.5675 26.2876L28.2363 26.967C26.7701 26.1489 25.4227 25.1329 24.2319 23.9474C23.0498 22.7532 22.0368 21.4019 21.2211 19.9314L21.8534 19.5086C22.5208 19.1809 23.0438 18.6171 23.3218 17.9259C23.5997 17.2346 23.6129 16.4647 23.3588 15.7643C23.1198 15.1188 22.9236 14.4581 22.7717 13.7865C22.6964 13.4544 22.6362 13.1071 22.591 12.7599C22.4082 11.6964 21.8528 10.7333 21.0249 10.0441C20.1969 9.35488 19.1507 8.98479 18.0748 9.00048H13.5586C12.9098 8.99437 12.2674 9.12853 11.6749 9.39383C11.0825 9.65912 10.554 10.0493 10.1254 10.5379C9.69688 11.0264 9.37831 11.6018 9.19142 12.225C9.00453 12.8481 8.9537 13.5043 9.0424 14.1489C9.84439 20.4739 12.7247 26.3508 17.2283 30.8511C21.7319 35.3514 27.6021 38.2187 33.9117 39H34.4837C35.5938 39.0016 36.6657 38.5931 37.4945 37.8526C37.9708 37.4253 38.3512 36.9017 38.6108 36.3161C38.8703 35.7305 39.0029 35.0963 39 34.4555V29.9262C38.9815 28.8774 38.6007 27.8676 37.9226 27.0691C37.2445 26.2706 36.311 25.7329 35.2816 25.5478ZM36.0343 34.6065C36.034 34.8209 35.9883 35.0327 35.9 35.228C35.8117 35.4232 35.683 35.5974 35.5225 35.7388C35.3548 35.8853 35.1581 35.9946 34.9454 36.0597C34.7327 36.1247 34.5087 36.144 34.288 36.1163C28.6501 35.3913 23.4134 32.8046 19.4037 28.7641C15.394 24.7236 12.8397 19.4593 12.1435 13.8016C12.1196 13.5805 12.1406 13.3567 12.2053 13.1439C12.2699 12.9311 12.377 12.7337 12.5199 12.5636C12.661 12.4025 12.8346 12.2735 13.0293 12.185C13.224 12.0964 13.4352 12.0505 13.6489 12.0503H18.1652C18.5152 12.0424 18.8571 12.1573 19.1318 12.375C19.4066 12.5927 19.5971 12.8996 19.6706 13.243C19.7308 13.6557 19.806 14.0633 19.8964 14.4659C20.0703 15.2618 20.3017 16.0439 20.5889 16.8061L18.4813 17.7875C18.3011 17.8704 18.139 17.9882 18.0043 18.1341C17.8696 18.28 17.765 18.4512 17.6965 18.6378C17.6279 18.8243 17.5968 19.0227 17.6049 19.2213C17.613 19.42 17.6602 19.6151 17.7436 19.7955C19.9102 24.4498 23.6407 28.1911 28.2815 30.364C28.648 30.515 29.0591 30.515 29.4256 30.364C29.6133 30.2966 29.7859 30.1926 29.9332 30.0578C30.0805 29.923 30.1996 29.7602 30.2837 29.5789L31.217 27.4652C31.9953 27.7443 32.7895 27.9762 33.5956 28.1597C33.997 28.2503 34.4035 28.3258 34.8149 28.3862C35.1573 28.4598 35.4634 28.6509 35.6804 28.9265C35.8975 29.202 36.012 29.5449 36.0042 29.896L36.0343 34.6065Z" fill="#263C91"/>
</svg>
