<svg width="54" height="58" viewBox="0 0 54 58" fill="none" xmlns="http://www.w3.org/2000/svg">
<rect width="54" height="58" rx="10" fill="#FF3131"/>
<path d="M35.998 29C35.7328 29 35.4785 29.1054 35.2909 29.2929C35.1034 29.4804 34.998 29.7348 34.998 30V36C34.998 36.2652 34.8927 36.5196 34.7052 36.7071C34.5176 36.8946 34.2633 37 33.998 37H19.998C19.7328 37 19.4785 36.8946 19.2909 36.7071C19.1034 36.5196 18.998 36.2652 18.998 36V22C18.998 21.7348 19.1034 21.4804 19.2909 21.2929C19.4785 21.1054 19.7328 21 19.998 21H25.998C26.2633 21 26.5176 20.8946 26.7052 20.7071C26.8927 20.5196 26.998 20.2652 26.998 20C26.998 19.7348 26.8927 19.4804 26.7052 19.2929C26.5176 19.1054 26.2633 19 25.998 19H19.998C19.2024 19 18.4393 19.3161 17.8767 19.8787C17.3141 20.4413 16.998 21.2044 16.998 22V36C16.998 36.7956 17.3141 37.5587 17.8767 38.1213C18.4393 38.6839 19.2024 39 19.998 39H33.998C34.7937 39 35.5568 38.6839 36.1194 38.1213C36.682 37.5587 36.998 36.7956 36.998 36V30C36.998 29.7348 36.8927 29.4804 36.7052 29.2929C36.5176 29.1054 36.2633 29 35.998 29ZM20.998 29.76V34C20.998 34.2652 21.1034 34.5196 21.2909 34.7071C21.4785 34.8946 21.7328 35 21.998 35H26.238C26.3697 35.0008 26.5001 34.9755 26.622 34.9258C26.7438 34.876 26.8546 34.8027 26.948 34.71L33.868 27.78L36.708 25C36.8018 24.907 36.8762 24.7964 36.9269 24.6746C36.9777 24.5527 37.0038 24.422 37.0038 24.29C37.0038 24.158 36.9777 24.0273 36.9269 23.9054C36.8762 23.7836 36.8018 23.673 36.708 23.58L32.468 19.29C32.3751 19.1963 32.2645 19.1219 32.1426 19.0711C32.0208 19.0203 31.8901 18.9942 31.758 18.9942C31.626 18.9942 31.4953 19.0203 31.3735 19.0711C31.2516 19.1219 31.141 19.1963 31.048 19.29L28.228 22.12L21.288 29.05C21.1954 29.1434 21.122 29.2543 21.0723 29.3761C21.0225 29.4979 20.9973 29.6284 20.998 29.76ZM31.758 21.41L34.588 24.24L33.168 25.66L30.338 22.83L31.758 21.41ZM22.998 30.17L28.928 24.24L31.758 27.07L25.828 33H22.998V30.17Z" fill="white"/>
</svg>
