<svg width="18" height="19" viewBox="0 0 18 19" fill="none" xmlns="http://www.w3.org/2000/svg">
<path d="M0.9 3.5H17.1C17.3387 3.5 17.5676 3.34196 17.7364 3.06066C17.9052 2.77936 18 2.39782 18 2C18 1.60218 17.9052 1.22064 17.7364 0.93934C17.5676 0.658036 17.3387 0.5 17.1 0.5H0.9C0.661305 0.5 0.432387 0.658036 0.263604 0.93934C0.0948211 1.22064 0 1.60218 0 2C0 2.39782 0.0948211 2.77936 0.263604 3.06066C0.432387 3.34196 0.661305 3.5 0.9 3.5ZM17.1 15.5H0.9C0.661305 15.5 0.432387 15.658 0.263604 15.9393C0.0948211 16.2206 0 16.6022 0 17C0 17.3978 0.0948211 17.7794 0.263604 18.0607C0.432387 18.342 0.661305 18.5 0.9 18.5H17.1C17.3387 18.5 17.5676 18.342 17.7364 18.0607C17.9052 17.7794 18 17.3978 18 17C18 16.6022 17.9052 16.2206 17.7364 15.9393C17.5676 15.658 17.3387 15.5 17.1 15.5ZM17.1 8H0.9C0.661305 8 0.432387 8.15804 0.263604 8.43934C0.0948211 8.72064 0 9.10218 0 9.5C0 9.89782 0.0948211 10.2794 0.263604 10.5607C0.432387 10.842 0.661305 11 0.9 11H17.1C17.3387 11 17.5676 10.842 17.7364 10.5607C17.9052 10.2794 18 9.89782 18 9.5C18 9.10218 17.9052 8.72064 17.7364 8.43934C17.5676 8.15804 17.3387 8 17.1 8Z" fill="white"/>
</svg>
