<svg width="54" height="58" viewBox="0 0 54 58" fill="none" xmlns="http://www.w3.org/2000/svg">
<rect width="54" height="58" rx="10" fill="#263C91"/>
<path d="M24.7793 20.3331C24.7793 20.1563 24.8572 19.9868 24.996 19.8618C25.1347 19.7367 25.3229 19.6665 25.5191 19.6665H28.4785C28.6747 19.6665 28.8629 19.7367 29.0017 19.8618C29.1404 19.9868 29.2183 20.1563 29.2183 20.3331C29.2183 20.5099 29.1404 20.6795 29.0017 20.8045C28.8629 20.9295 28.6747 20.9998 28.4785 20.9998H25.5191C25.3229 20.9998 25.1347 20.9295 24.996 20.8045C24.8572 20.6795 24.7793 20.5099 24.7793 20.3331Z" fill="white"/>
<path fill-rule="evenodd" clip-rule="evenodd" d="M33.9271 25.3462C33.6585 25.5362 33.3101 25.6881 32.8898 25.8115C32.9702 26.5521 32.8777 27.2996 32.6183 28.0061C32.3588 28.7125 31.9382 29.3622 31.3834 29.9134C30.8286 30.4646 30.1519 30.9051 29.3968 31.2065C28.6418 31.5079 27.8251 31.6637 26.9992 31.6637C26.1734 31.6637 25.3567 31.5079 24.6016 31.2065C23.8465 30.9051 23.1699 30.4646 22.615 29.9134C22.0602 29.3622 21.6396 28.7125 21.3801 28.0061C21.1207 27.2996 21.0282 26.5521 21.1086 25.8115C20.6884 25.6881 20.3399 25.5362 20.0721 25.3462C19.7243 25.0995 19.4913 24.7702 19.4639 24.3742C19.438 24.0069 19.5993 23.6949 19.7606 23.4749C19.9198 23.2666 20.1089 23.0781 20.3229 22.9143C20.4265 22.8323 20.5286 22.7597 20.6233 22.6963C20.5951 22.5597 20.5641 22.3943 20.533 22.203C20.4019 21.3627 20.3376 20.5151 20.3406 19.6665C20.3406 19.4572 20.4398 19.3012 20.4856 19.2352C20.5434 19.1519 20.6114 19.0805 20.6736 19.0232C20.7971 18.9066 20.9569 18.7879 21.1323 18.6739C21.4874 18.4419 21.9757 18.1813 22.5557 17.9373C23.7121 17.4506 25.3005 17 26.9992 17C28.6986 17 30.2863 17.4513 31.4427 17.9373C31.9414 18.1428 32.4179 18.3894 32.8662 18.6739C33.0415 18.7879 33.2013 18.9072 33.3249 19.0232C33.387 19.0805 33.4551 19.1519 33.5128 19.2352C33.5586 19.3012 33.6578 19.4572 33.6578 19.6665C33.6578 20.7344 33.5616 21.5997 33.4654 22.203C33.4344 22.3943 33.4033 22.5597 33.3752 22.6963C33.4699 22.7597 33.5727 22.8323 33.6763 22.9143C33.8612 23.0603 34.0728 23.2503 34.2378 23.4749C34.3998 23.6949 34.5604 24.0069 34.5352 24.3749C34.5079 24.7702 34.2748 25.0995 33.9271 25.3462ZM21.8218 19.8785C21.8329 20.7771 21.9158 21.5037 21.9979 22.0117C22.0171 22.1317 22.0364 22.2384 22.0541 22.333H31.9443C31.9628 22.2384 31.9813 22.131 32.0005 22.0117C32.0819 21.5037 32.1655 20.7771 32.1766 19.8785C32.119 19.8346 32.0596 19.7928 31.9983 19.7532C31.7312 19.5792 31.3258 19.3599 30.8168 19.1459C29.7936 18.7152 28.4227 18.3333 26.9992 18.3333C25.5758 18.3333 24.2048 18.7152 23.1816 19.1459C22.6726 19.3599 22.2672 19.5792 22.0008 19.7525C21.9393 19.7926 21.8796 19.8348 21.8218 19.8792V19.8785ZM21.6635 23.6663L21.6613 23.6676C21.5336 23.7443 21.4113 23.828 21.295 23.9183C21.1633 24.0222 21.0583 24.1236 20.9947 24.2116C20.9795 24.2314 20.9659 24.2521 20.954 24.2736C20.9644 24.2822 20.9753 24.2904 20.9865 24.2982C21.0975 24.3769 21.3357 24.4922 21.8003 24.6062C21.8921 24.6289 21.9905 24.6502 22.0955 24.6715L22.1022 24.6729C22.4736 24.7469 22.9308 24.8129 23.4879 24.8649C24.2773 24.9389 25.2709 24.9875 26.5124 24.9982L26.9992 24.9995C29.3867 24.9995 30.9307 24.8655 31.897 24.6729L31.9029 24.6715C32.0087 24.6502 32.1071 24.6289 32.1988 24.6062C32.6627 24.4929 32.9017 24.3769 33.0119 24.2982C33.0231 24.2904 33.034 24.2822 33.0445 24.2736C33.0327 24.2521 33.0194 24.2314 33.0045 24.2116C32.9184 24.1026 32.8173 24.004 32.7034 23.9183C32.5874 23.828 32.4654 23.7443 32.3379 23.6676L32.3349 23.6663H21.6635ZM26.798 26.3328C28.7526 26.3328 30.2678 26.2394 31.4294 26.0768C31.4676 26.6203 31.3822 27.1651 31.1784 27.6778C30.9746 28.1906 30.6568 28.6604 30.2444 29.0585C29.832 29.4567 29.3338 29.7747 28.7801 29.9932C28.2265 30.2117 27.6292 30.326 27.0248 30.3292C26.4204 30.3323 25.8216 30.2242 25.2652 30.0115C24.7088 29.7987 24.2065 29.4859 23.7891 29.092C23.3716 28.6982 23.0478 28.2317 22.8375 27.7211C22.6272 27.2105 22.5348 26.6667 22.5661 26.1228C23.6485 26.2574 25.0357 26.3328 26.798 26.3328ZM21.1382 38.9167C21.0996 39.1647 21.0803 39.4149 21.0805 39.6653V40.3319C21.0806 40.4785 21.027 40.621 20.9282 40.7373C20.8294 40.8537 20.6907 40.9375 20.5337 40.9758C20.3767 41.014 20.2101 41.0046 20.0597 40.949C19.9092 40.8933 19.7833 40.7945 19.7014 40.6679C19.2028 40.9116 18.6193 40.9734 18.0715 40.8406L16.6422 40.4953C16.0738 40.3578 15.5893 40.0226 15.2951 39.5633C15.001 39.104 14.9214 38.5583 15.0737 38.0461L15.6478 36.1142C15.8002 35.6019 16.1722 35.1652 16.682 34.9C17.1917 34.6349 17.7975 34.563 18.366 34.7003L19.7954 35.0449C20.2925 35.1649 20.7054 35.4282 20.9924 35.7722C21.6773 34.9132 22.5795 34.2136 23.6242 33.7314C24.6689 33.2491 25.8261 32.9981 26.9999 32.999C28.1732 32.9983 29.3297 33.2494 30.3738 33.7314C31.418 34.2134 32.3197 34.9125 33.0045 35.7709C33.3019 35.4155 33.7228 35.1602 34.2001 35.0456L35.6295 34.7009C36.1979 34.5637 36.8036 34.6354 37.3133 34.9005C37.823 35.1655 38.1951 35.6021 38.3476 36.1142L38.9225 38.0467C38.9979 38.3004 39.0171 38.565 38.979 38.8254C38.9409 39.0858 38.8463 39.3369 38.7005 39.5643C38.5547 39.7917 38.3606 39.9911 38.1294 40.1509C37.8981 40.3108 37.6341 40.428 37.3526 40.4959L35.9239 40.8406C35.3771 40.9735 34.7946 40.9124 34.2963 40.6699C34.2141 40.7963 34.088 40.8949 33.9375 40.9503C33.787 41.0057 33.6204 41.0148 33.4635 40.9764C33.3066 40.9379 33.1682 40.8539 33.0695 40.7374C32.9709 40.621 32.9176 40.4784 32.9179 40.3319V39.6653C32.9181 39.4149 32.8988 39.1647 32.8602 38.9167L29.0101 39.8466C28.8314 40.1913 28.5473 40.4829 28.1911 40.6872C27.8349 40.8915 27.4214 41 26.9992 41C26.577 41 26.1635 40.8915 25.8073 40.6872C25.4512 40.4829 25.167 40.1913 24.9883 39.8466L21.1382 38.9167ZM24.8685 38.4367C24.9678 38.1328 25.1456 37.8544 25.3874 37.6244C25.6291 37.3944 25.928 37.2193 26.2594 37.1135V34.3736C25.2216 34.4918 24.2371 34.8554 23.4059 35.4275C22.5746 35.9996 21.9262 36.7598 21.5266 37.6308L24.8685 38.4374V38.4367ZM32.4718 37.6301C32.0721 36.7592 31.4237 35.9992 30.5924 35.4272C29.7612 34.8553 28.7767 34.4918 27.739 34.3736V37.1128C28.4079 37.3261 28.9302 37.8194 29.13 38.4374L32.4718 37.6308V37.6301ZM34.0603 37.1501C34.0351 37.0656 34.0286 36.9774 34.0413 36.8905C34.054 36.8037 34.0855 36.72 34.1341 36.6442C34.1826 36.5684 34.2473 36.5019 34.3244 36.4486C34.4015 36.3953 34.4895 36.3562 34.5833 36.3335L36.0127 35.9882C36.2021 35.9426 36.4039 35.9666 36.5737 36.055C36.7435 36.1433 36.8675 36.2888 36.9183 36.4595L37.4931 38.3914C37.5183 38.4759 37.5247 38.5642 37.5121 38.651C37.4994 38.7378 37.4679 38.8215 37.4193 38.8973C37.3707 38.9731 37.3061 39.0396 37.229 39.0929C37.1519 39.1462 37.0639 39.1853 36.9701 39.208L35.5407 39.5533C35.4468 39.576 35.3488 39.5818 35.2525 39.5703C35.1561 39.5589 35.0631 39.5304 34.979 39.4866C34.8948 39.4427 34.821 39.3844 34.7619 39.3148C34.7028 39.2453 34.6594 39.166 34.6344 39.0813L34.0603 37.1501ZM17.9835 35.9882C17.8896 35.9654 17.7916 35.9595 17.6952 35.9709C17.5988 35.9823 17.5058 36.0106 17.4215 36.0544C17.3373 36.0982 17.2634 36.1565 17.2042 36.226C17.145 36.2955 17.1016 36.3749 17.0765 36.4595L16.5023 38.3907C16.4772 38.4753 16.4707 38.5635 16.4834 38.6503C16.496 38.7371 16.5276 38.8208 16.5761 38.8967C16.6247 38.9725 16.6894 39.0389 16.7665 39.0923C16.8436 39.1456 16.9315 39.1847 17.0254 39.2073L18.4548 39.5526C18.5486 39.5753 18.6465 39.5811 18.7429 39.5697C18.8392 39.5583 18.9321 39.5299 19.0163 39.4861C19.1004 39.4424 19.1742 39.3841 19.2334 39.3146C19.2925 39.2452 19.3359 39.1659 19.3611 39.0813L19.9352 37.1495C19.9605 37.0648 19.967 36.9766 19.9544 36.8897C19.9418 36.8028 19.9103 36.719 19.8617 36.6431C19.8131 36.5672 19.7484 36.5007 19.6713 36.4473C19.5941 36.394 19.5061 36.3548 19.4121 36.3322L17.9828 35.9875L17.9835 35.9882ZM27.739 38.9987C27.739 39.1755 27.6611 39.345 27.5224 39.4701C27.3836 39.5951 27.1954 39.6653 26.9992 39.6653C26.803 39.6653 26.6148 39.5951 26.4761 39.4701C26.3373 39.345 26.2594 39.1755 26.2594 38.9987C26.2594 38.8219 26.3373 38.6523 26.4761 38.5273C26.6148 38.4023 26.803 38.3321 26.9992 38.3321C27.1954 38.3321 27.3836 38.4023 27.5224 38.5273C27.6611 38.6523 27.739 38.8219 27.739 38.9987Z" fill="white"/>
</svg>
