<svg width="12" height="13" viewBox="0 0 20 21" fill="true" xmlns="http://www.w3.org/2000/svg">
<path d="M20 5.74002C20.0008 5.60841 19.9756 5.47795 19.9258 5.35611C19.876 5.23427 19.8027 5.12346 19.71 5.03002L15.47 0.790017C15.3766 0.697335 15.2658 0.62401 15.1439 0.574245C15.0221 0.524481 14.8916 0.499256 14.76 0.500017C14.6284 0.499256 14.4979 0.524481 14.3761 0.574245C14.2543 0.62401 14.1435 0.697335 14.05 0.790017L11.22 3.62002L0.290017 14.55C0.197335 14.6435 0.12401 14.7543 0.0742455 14.8761C0.0244809 14.9979 -0.000744179 15.1284 1.67143e-05 15.26V19.5C1.67143e-05 19.7652 0.105374 20.0196 0.29291 20.2071C0.480446 20.3947 0.7348 20.5 1.00002 20.5H5.24002C5.37994 20.5076 5.51991 20.4857 5.65084 20.4358C5.78176 20.3858 5.90073 20.3089 6.00002 20.21L16.87 9.28002L19.71 6.50002C19.8013 6.4031 19.8757 6.29155 19.93 6.17002C19.9397 6.09031 19.9397 6.00973 19.93 5.93002C19.9347 5.88347 19.9347 5.83657 19.93 5.79002L20 5.74002ZM4.83002 18.5H2.00002V15.67L11.93 5.74002L14.76 8.57002L4.83002 18.5ZM16.17 7.16002L13.34 4.33002L14.76 2.92002L17.58 5.74002L16.17 7.16002Z" fill="#263C91"/>
</svg>
