<svg width="54" height="58" viewBox="0 0 54 58" fill="none" xmlns="http://www.w3.org/2000/svg">
<rect width="54" height="58" rx="10" fill="#3CA745"/>
<path d="M21 28C20.8022 28 20.6089 28.0586 20.4444 28.1685C20.28 28.2784 20.1518 28.4346 20.0761 28.6173C20.0004 28.8 19.9806 29.0011 20.0192 29.1951C20.0578 29.3891 20.153 29.5673 20.2929 29.7071C20.4327 29.847 20.6109 29.9422 20.8049 29.9808C20.9989 30.0194 21.2 29.9996 21.3827 29.9239C21.5654 29.8482 21.7216 29.72 21.8315 29.5556C21.9414 29.3911 22 29.1978 22 29C22 28.7348 21.8946 28.4804 21.7071 28.2929C21.5196 28.1054 21.2652 28 21 28ZM33 28C32.8022 28 32.6089 28.0586 32.4444 28.1685C32.28 28.2784 32.1518 28.4346 32.0761 28.6173C32.0004 28.8 31.9806 29.0011 32.0192 29.1951C32.0578 29.3891 32.153 29.5673 32.2929 29.7071C32.4327 29.847 32.6109 29.9422 32.8049 29.9808C32.9989 30.0194 33.2 29.9996 33.3827 29.9239C33.5654 29.8482 33.7216 29.72 33.8315 29.5556C33.9414 29.3911 34 29.1978 34 29C34 28.7348 33.8946 28.4804 33.7071 28.2929C33.5196 28.1054 33.2652 28 33 28ZM35 22H19C18.2044 22 17.4413 22.3161 16.8787 22.8787C16.3161 23.4413 16 24.2044 16 25V33C16 33.7956 16.3161 34.5587 16.8787 35.1213C17.4413 35.6839 18.2044 36 19 36H35C35.7956 36 36.5587 35.6839 37.1213 35.1213C37.6839 34.5587 38 33.7956 38 33V25C38 24.2044 37.6839 23.4413 37.1213 22.8787C36.5587 22.3161 35.7956 22 35 22ZM36 33C36 33.2652 35.8946 33.5196 35.7071 33.7071C35.5196 33.8946 35.2652 34 35 34H19C18.7348 34 18.4804 33.8946 18.2929 33.7071C18.1054 33.5196 18 33.2652 18 33V25C18 24.7348 18.1054 24.4804 18.2929 24.2929C18.4804 24.1054 18.7348 24 19 24H35C35.2652 24 35.5196 24.1054 35.7071 24.2929C35.8946 24.4804 36 24.7348 36 25V33ZM27 26C26.4067 26 25.8266 26.1759 25.3333 26.5056C24.8399 26.8352 24.4554 27.3038 24.2284 27.8519C24.0013 28.4001 23.9419 29.0033 24.0576 29.5853C24.1734 30.1672 24.4591 30.7018 24.8787 31.1213C25.2982 31.5409 25.8328 31.8266 26.4147 31.9424C26.9967 32.0581 27.5999 31.9987 28.1481 31.7716C28.6962 31.5446 29.1648 31.1601 29.4944 30.6667C29.8241 30.1734 30 29.5933 30 29C30 28.2044 29.6839 27.4413 29.1213 26.8787C28.5587 26.3161 27.7956 26 27 26ZM27 30C26.8022 30 26.6089 29.9414 26.4444 29.8315C26.28 29.7216 26.1518 29.5654 26.0761 29.3827C26.0004 29.2 25.9806 28.9989 26.0192 28.8049C26.0578 28.6109 26.153 28.4327 26.2929 28.2929C26.4327 28.153 26.6109 28.0578 26.8049 28.0192C26.9989 27.9806 27.2 28.0004 27.3827 28.0761C27.5654 28.1518 27.7216 28.28 27.8315 28.4444C27.9414 28.6089 28 28.8022 28 29C28 29.2652 27.8946 29.5196 27.7071 29.7071C27.5196 29.8946 27.2652 30 27 30Z" fill="white"/>
</svg>
