<svg width="48" height="48" viewBox="0 0 48 48" fill="none" xmlns="http://www.w3.org/2000/svg">
<rect width="48" height="48" rx="10" fill="#EEEEEE"/>
<path d="M34.5 12H13.5C12.3065 12 11.1619 12.4741 10.318 13.318C9.47411 14.1619 9 15.3065 9 16.5V31.5C9 32.6935 9.47411 33.8381 10.318 34.682C11.1619 35.5259 12.3065 36 13.5 36H34.5C35.6935 36 36.8381 35.5259 37.682 34.682C38.5259 33.8381 39 32.6935 39 31.5V16.5C39 15.3065 38.5259 14.1619 37.682 13.318C36.8381 12.4741 35.6935 12 34.5 12ZM13.5 15H34.5C34.8978 15 35.2794 15.158 35.5607 15.4393C35.842 15.7206 36 16.1022 36 16.5L24 23.82L12 16.5C12 16.1022 12.158 15.7206 12.4393 15.4393C12.7206 15.158 13.1022 15 13.5 15ZM36 31.5C36 31.8978 35.842 32.2794 35.5607 32.5607C35.2794 32.842 34.8978 33 34.5 33H13.5C13.1022 33 12.7206 32.842 12.4393 32.5607C12.158 32.2794 12 31.8978 12 31.5V19.92L23.22 26.775C23.448 26.9067 23.7067 26.976 23.97 26.976C24.2333 26.976 24.492 26.9067 24.72 26.775L36 19.92V31.5Z" fill="#263C91"/>
</svg>
