<svg width="18" height="21" viewBox="0 0 18 21" fill="none" xmlns="http://www.w3.org/2000/svg">
<path d="M15.75 11.7075V8.51965C15.7484 7.09929 15.1827 5.72527 14.1532 4.64092C13.1237 3.55657 11.6967 2.83186 10.125 2.59513V1.50246C10.125 1.23659 10.0065 0.98161 9.7955 0.793613C9.58452 0.605616 9.29837 0.5 9 0.5C8.70163 0.5 8.41548 0.605616 8.2045 0.793613C7.99353 0.98161 7.875 1.23659 7.875 1.50246V2.59513C6.30331 2.83186 4.87634 3.55657 3.84681 4.64092C2.81728 5.72527 2.25162 7.09929 2.25 8.51965V11.7075C1.59351 11.9143 1.02487 12.297 0.622056 12.8031C0.219238 13.3092 0.00195695 13.9139 0 14.5344V16.5393C0 16.8052 0.118527 17.0601 0.329505 17.2481C0.540483 17.4361 0.826631 17.5418 1.125 17.5418H4.6575C4.91657 18.3912 5.48213 19.1411 6.26692 19.6757C7.05172 20.2103 8.01213 20.5 9 20.5C9.98787 20.5 10.9483 20.2103 11.7331 19.6757C12.5179 19.1411 13.0834 18.3912 13.3425 17.5418H16.875C17.1734 17.5418 17.4595 17.4361 17.6705 17.2481C17.8815 17.0601 18 16.8052 18 16.5393V14.5344C17.998 13.9139 17.7808 13.3092 17.3779 12.8031C16.9751 12.297 16.4065 11.9143 15.75 11.7075ZM4.5 8.51965C4.5 7.45618 4.97411 6.43626 5.81802 5.68427C6.66193 4.93229 7.80653 4.50982 9 4.50982C10.1935 4.50982 11.3381 4.93229 12.182 5.68427C13.0259 6.43626 13.5 7.45618 13.5 8.51965V11.527H4.5V8.51965ZM9 18.5442C8.60734 18.5421 8.22215 18.4485 7.88269 18.2726C7.54323 18.0967 7.26132 17.8448 7.065 17.5418H10.935C10.7387 17.8448 10.4568 18.0967 10.1173 18.2726C9.77785 18.4485 9.39266 18.5421 9 18.5442ZM15.75 15.5368H2.25V14.5344C2.25 14.2685 2.36853 14.0135 2.5795 13.8255C2.79048 13.6375 3.07663 13.5319 3.375 13.5319H14.625C14.9234 13.5319 15.2095 13.6375 15.4205 13.8255C15.6315 14.0135 15.75 14.2685 15.75 14.5344V15.5368Z" fill="white"/>
</svg>
