<svg width="54" height="58" viewBox="0 0 54 58" fill="none" xmlns="http://www.w3.org/2000/svg">
<rect width="54" height="58" rx="10" fill="#333333"/>
<g clip-path="url(#clip0_1381_7886)">
<path d="M20.998 28C20.8003 28 20.6069 28.0586 20.4425 28.1685C20.278 28.2784 20.1499 28.4346 20.0742 28.6173C19.9985 28.8 19.9787 29.0011 20.0173 29.1951C20.0558 29.3891 20.1511 29.5673 20.2909 29.7071C20.4308 29.847 20.609 29.9422 20.803 29.9808C20.9969 30.0194 21.198 29.9996 21.3807 29.9239C21.5635 29.8482 21.7196 29.72 21.8295 29.5556C21.9394 29.3911 21.998 29.1978 21.998 29C21.998 28.7348 21.8927 28.4804 21.7052 28.2929C21.5176 28.1054 21.2633 28 20.998 28ZM32.998 28C32.8003 28 32.6069 28.0586 32.4425 28.1685C32.278 28.2784 32.1499 28.4346 32.0742 28.6173C31.9985 28.8 31.9787 29.0011 32.0173 29.1951C32.0558 29.3891 32.1511 29.5673 32.2909 29.7071C32.4308 29.847 32.609 29.9422 32.803 29.9808C32.9969 30.0194 33.198 29.9996 33.3807 29.9239C33.5635 29.8482 33.7196 29.72 33.8295 29.5556C33.9394 29.3911 33.998 29.1978 33.998 29C33.998 28.7348 33.8927 28.4804 33.7052 28.2929C33.5176 28.1054 33.2633 28 32.998 28ZM34.998 22H18.998C18.2024 22 17.4393 22.3161 16.8767 22.8787C16.3141 23.4413 15.998 24.2044 15.998 25V33C15.998 33.7956 16.3141 34.5587 16.8767 35.1213C17.4393 35.6839 18.2024 36 18.998 36H34.998C35.7937 36 36.5568 35.6839 37.1194 35.1213C37.682 34.5587 37.998 33.7956 37.998 33V25C37.998 24.2044 37.682 23.4413 37.1194 22.8787C36.5568 22.3161 35.7937 22 34.998 22ZM35.998 33C35.998 33.2652 35.8927 33.5196 35.7052 33.7071C35.5176 33.8946 35.2633 34 34.998 34H18.998C18.7328 34 18.4785 33.8946 18.2909 33.7071C18.1034 33.5196 17.998 33.2652 17.998 33V25C17.998 24.7348 18.1034 24.4804 18.2909 24.2929C18.4785 24.1054 18.7328 24 18.998 24H34.998C35.2633 24 35.5176 24.1054 35.7052 24.2929C35.8927 24.4804 35.998 24.7348 35.998 25V33ZM26.998 26C26.4047 26 25.8247 26.1759 25.3313 26.5056C24.838 26.8352 24.4535 27.3038 24.2264 27.8519C23.9993 28.4001 23.9399 29.0033 24.0557 29.5853C24.1714 30.1672 24.4572 30.7018 24.8767 31.1213C25.2963 31.5409 25.8308 31.8266 26.4128 31.9424C26.9947 32.0581 27.5979 31.9987 28.1461 31.7716C28.6943 31.5446 29.1628 31.1601 29.4925 30.6667C29.8221 30.1734 29.998 29.5933 29.998 29C29.998 28.2044 29.682 27.4413 29.1194 26.8787C28.5568 26.3161 27.7937 26 26.998 26ZM26.998 30C26.8003 30 26.6069 29.9414 26.4425 29.8315C26.278 29.7216 26.1499 29.5654 26.0742 29.3827C25.9985 29.2 25.9787 28.9989 26.0173 28.8049C26.0558 28.6109 26.1511 28.4327 26.2909 28.2929C26.4308 28.153 26.609 28.0578 26.803 28.0192C26.9969 27.9806 27.198 28.0004 27.3807 28.0761C27.5635 28.1518 27.7196 28.28 27.8295 28.4444C27.9394 28.6089 27.998 28.8022 27.998 29C27.998 29.2652 27.8927 29.5196 27.7052 29.7071C27.5176 29.8946 27.2633 30 26.998 30Z" fill="white"/>
</g>
<defs>
<clipPath id="clip0_1381_7886">
<rect width="24" height="24" fill="white" transform="translate(15 17)"/>
</clipPath>
</defs>
</svg>
