<svg width="37" height="37" viewBox="0 0 37 37" fill="none" xmlns="http://www.w3.org/2000/svg">
<path d="M3.60976 12.6759L0 16.787L7.21951 13.7037L12.6341 11.3056L16.6951 9.25V7.87963L20.7561 7.53704L25.2683 8.56481L27.9756 10.6204L29.3293 12.6759L28.878 16.1019L27.5244 18.8426L25.2683 21.5833L21.6585 24.3241V26.037L29.3293 22.9537L33.3902 20.213L35.6463 17.4722L37 14.7315V11.3056L35.6463 8.22222L32.939 5.13889L28.878 2.74074L23.4634 0.685185L16.6951 0L9.92683 0.342593L2.70732 2.05556L3.60976 12.6759Z" fill="#FAFBFF"/>
<path d="M4.96341 17.4722L19.8537 11.3056L17.1463 14.3889V16.4444L11.7317 18.8426L1.80488 23.2963L4.96341 19.8704V17.4722Z" fill="#FAFBFF"/>
<path d="M5.41463 24.3241L18.9512 18.5L16.2439 20.8981V22.9537L3.60976 28.0926L5.86585 26.037L5.41463 24.3241Z" fill="#FAFBFF"/>
<path d="M16.2439 26.3796L18.5 24.3241L6.31707 29.1204V30.8333L4.5122 32.8889L16.2439 28.0926V26.3796Z" fill="#FAFBFF"/>
<path d="M15.3415 32.2037L16.6951 30.1481L7.21951 34.2593L9.92683 35.287L11.2805 37L12.6341 35.287L15.3415 33.9167V32.2037Z" fill="#FAFBFF"/>
</svg>
