<svg width="64" height="80" viewBox="0 0 64 80" fill="none" xmlns="http://www.w3.org/2000/svg">
<path d="M6.2439 27.4074L0 36.2963L12.4878 29.6296L21.8537 24.4444L28.8781 20V17.037L35.9024 16.2963L43.7073 18.5185L48.3903 22.963L50.7317 27.4074L49.9512 34.8148L47.6098 40.7407L43.7073 46.6667L37.4634 52.5926V56.2963L50.7317 49.6296L57.7561 43.7037L61.6585 37.7778L64 31.8519V24.4444L61.6585 17.7778L56.9756 11.1111L49.9512 5.92593L40.5854 1.48148L28.8781 0L17.1707 0.740741L4.68293 4.44444L6.2439 27.4074Z" fill="#263C91"/>
<path d="M8.58537 37.7778L34.3415 24.4444L29.6585 31.1111V35.5556L20.2927 40.7407L3.12195 50.3704L8.58537 42.963V37.7778Z" fill="#263C91"/>
<path d="M9.36585 52.5926L32.7805 40L28.0976 45.1852V49.6296L6.2439 60.7407L10.1463 56.2963L9.36585 52.5926Z" fill="#263C91"/>
<path d="M28.0976 57.037L32 52.5926L10.9268 62.963V66.6667L7.80488 71.1111L28.0976 60.7407V57.037Z" fill="#263C91"/>
<path d="M26.5366 69.6296L28.8781 65.1852L12.4878 74.0741L17.1707 76.2963L19.5122 80L21.8537 76.2963L26.5366 73.3333V69.6296Z" fill="#263C91"/>
</svg>
