<svg width="22" height="21" viewBox="0 0 22 21" fill="none" xmlns="http://www.w3.org/2000/svg">
<path d="M2.61997 15.28C2.7181 15.5267 2.91019 15.7242 3.15399 15.8292C3.39779 15.9343 3.67332 15.9381 3.91997 15.84C4.16662 15.7419 4.36419 15.5498 4.46921 15.306C4.57423 15.0622 4.5781 14.7867 4.47997 14.54L3.35997 11.72L9.99997 10.25V15C9.99997 15.2652 10.1053 15.5196 10.2929 15.7071C10.4804 15.8946 10.7348 16 11 16C11.2652 16 11.5195 15.8946 11.7071 15.7071C11.8946 15.5196 12 15.2652 12 15V10.25L18.64 11.72L17.52 14.54C17.4713 14.6621 17.4471 14.7926 17.4489 14.9241C17.4507 15.0556 17.4784 15.1854 17.5304 15.3061C17.5824 15.4269 17.6577 15.5362 17.752 15.6278C17.8463 15.7194 17.9578 15.7915 18.08 15.84C18.1978 15.8866 18.3233 15.9103 18.45 15.91C18.6502 15.9102 18.846 15.8502 19.0118 15.7379C19.1776 15.6256 19.3059 15.4661 19.38 15.28L20.93 11.37C20.9832 11.2348 21.0063 11.0896 20.9976 10.9445C20.989 10.7994 20.9488 10.658 20.88 10.53C20.8131 10.4025 20.7196 10.2909 20.6057 10.2029C20.4918 10.1149 20.3602 10.0525 20.22 10.02L17 9.31V5C17 4.73478 16.8946 4.48043 16.7071 4.29289C16.5195 4.10536 16.2652 4 16 4H14V1C14 0.734784 13.8946 0.48043 13.7071 0.292893C13.5195 0.105357 13.2652 0 13 0H8.99997C8.73475 0 8.4804 0.105357 8.29286 0.292893C8.10533 0.48043 7.99997 0.734784 7.99997 1V4H5.99997C5.73475 4 5.4804 4.10536 5.29286 4.29289C5.10533 4.48043 4.99997 4.73478 4.99997 5V9.31L1.77997 10C1.63973 10.0325 1.50817 10.0949 1.39426 10.1829C1.28035 10.2709 1.18679 10.3825 1.11997 10.51C1.0511 10.638 1.01095 10.7794 1.00231 10.9245C0.993679 11.0696 1.01677 11.2148 1.06997 11.35L2.61997 15.28ZM9.99997 2H12V4H9.99997V2ZM6.99997 6H15V8.86L11.22 8H11.12H11H10.88H10.78L6.99997 8.86V6ZM19.71 17.28C19.3591 17.3875 19.0231 17.5387 18.71 17.73C18.3914 17.9163 18.029 18.0145 17.66 18.0145C17.2909 18.0145 16.9285 17.9163 16.61 17.73C15.9172 17.3392 15.1353 17.1339 14.34 17.1339C13.5446 17.1339 12.7627 17.3392 12.07 17.73C11.747 17.9141 11.3817 18.011 11.01 18.011C10.6382 18.011 10.2729 17.9141 9.94997 17.73C9.25661 17.3411 8.47496 17.1368 7.67997 17.1368C6.88498 17.1368 6.10333 17.3411 5.40997 17.73C5.0914 17.9163 4.72901 18.0145 4.35997 18.0145C3.99093 18.0145 3.62854 17.9163 3.30997 17.73C2.9968 17.5387 2.66084 17.3875 2.30997 17.28C2.17691 17.2327 2.03534 17.2141 1.89458 17.2255C1.75382 17.2368 1.61706 17.2778 1.49331 17.3459C1.36955 17.4139 1.2616 17.5073 1.17657 17.6201C1.09154 17.7328 1.03135 17.8623 0.99997 18C0.925316 18.2533 0.953863 18.5258 1.07938 18.7581C1.2049 18.9904 1.41721 19.1636 1.66997 19.24C1.87133 19.2946 2.06344 19.3788 2.23997 19.49C2.84668 19.846 3.53654 20.0357 4.23997 20.04C4.97057 20.0401 5.6882 19.8469 6.31997 19.48C6.71195 19.2638 7.15231 19.1504 7.59997 19.1504C8.04763 19.1504 8.48799 19.2638 8.87997 19.48C9.50727 19.8387 10.2174 20.0274 10.94 20.0274C11.6626 20.0274 12.3727 19.8387 13 19.48C13.3919 19.2638 13.8323 19.1504 14.28 19.1504C14.7276 19.1504 15.168 19.2638 15.56 19.48C16.1798 19.8499 16.8882 20.0453 17.61 20.0453C18.3318 20.0453 19.0402 19.8499 19.66 19.48C19.8365 19.3688 20.0286 19.2846 20.23 19.23C20.3631 19.2031 20.4893 19.1493 20.6009 19.0721C20.7125 18.9948 20.8073 18.8956 20.8793 18.7805C20.9513 18.6654 20.9992 18.5368 21.0199 18.4027C21.0407 18.2685 21.0339 18.1315 21 18C20.9682 17.8647 20.9085 17.7374 20.8248 17.6265C20.7411 17.5155 20.6352 17.4232 20.5138 17.3554C20.3924 17.2877 20.2582 17.246 20.1198 17.233C19.9814 17.22 19.8418 17.236 19.71 17.28Z" fill="#CCCCCC"/>
</svg>
