<svg width="36" height="38" viewBox="0 0 36 38" fill="none" xmlns="http://www.w3.org/2000/svg">
<path d="M35.5938 0.689142C34.426 1.34774 33.2839 2.06266 32.182 2.9725L32.7538 5.98398C33.869 6.31719 34.7799 6.44219 35.5938 6.45V0.689064V0.689142ZM27.8608 2.60414C26.6668 2.5975 25.3233 2.80695 23.6552 3.13805L23.638 3.14141L23.6208 3.14399C22.4669 3.31406 20.4338 4.08656 18.4282 6.18047L21.8868 7.09969C21.9627 6.98305 22.3505 6.39625 22.4243 6.27508C22.8246 6.51906 23.2249 6.76289 23.6252 7.00672C22.6506 8.60633 21.536 9.78453 20.1929 11.2663C20.027 11.6348 20.2692 11.9068 20.5335 12.0584C20.9413 12.2874 21.6351 12.2998 21.8177 12.2227C23.6873 10.9908 25.0066 9.41578 26.1898 7.82648L26.617 7.9018C27.5155 8.06047 28.685 7.98445 29.641 7.67891C30.508 7.40172 31.1466 6.94789 31.4115 6.45328L30.7922 3.19141C29.8513 2.78406 28.9141 2.61 27.8607 2.60414H27.8608ZM14.8072 6.71227L12.5075 15.7737L13.2609 15.7969H21.318L21.3883 15.7805L21.9198 13.664C21.2277 13.8124 20.4905 13.647 19.8451 13.2847C19.4398 13.0571 19.062 12.7191 18.8591 12.2352C18.2499 10.6775 20.0979 9.32133 21.1031 8.11406L14.807 6.71227H14.8072ZM2.43453 14.7031L0.637656 18.2969H33.3623L31.5654 14.7031H23.109L22.8342 15.7969H24.5V17.2031H9.5V15.7969H11.0509L11.3284 14.7031H2.43461H2.43453ZM0.203125 19.7031V37.0469H33.7969V19.7031H0.203125ZM1.29688 20.7969H32.7031V35.9531H1.29688V20.7969ZM2.70312 22.2031V31.4405L5.39859 25.5816L11.1298 28.063L16.337 24.4817L19.2677 28.9562L23.1826 28.5972L25.6279 25.5244L31.2969 29.8302V22.2031H2.70312ZM15.9487 26.4555L8.8682 31.325L10.9784 34.5469H18.4476L19.984 32.6164L15.9487 26.4555ZM6.10141 27.4184L2.82195 34.5469H9.29734L6.93852 30.9455L9.76227 29.0035L6.10141 27.4184V27.4184ZM25.8721 27.4756L20.2448 34.5469H31.2245L31.2969 34.4558V31.5962L25.872 27.4756H25.8721ZM21.9702 30.1205L20.1401 30.2883L20.9061 31.4577L21.9702 30.1205Z" fill="white"/>
</svg>
