<svg width="54" height="58" viewBox="0 0 54 58" fill="none" xmlns="http://www.w3.org/2000/svg">
<rect width="54" height="58" rx="10" fill="#E79640"/>
<path d="M16 29.5V34.5C16 34.7652 16.1054 35.0196 16.2929 35.2071C16.4804 35.3946 16.7348 35.5 17 35.5H18C18 36.2956 18.3161 37.0587 18.8787 37.6213C19.4413 38.1839 20.2044 38.5 21 38.5C21.7956 38.5 22.5587 38.1839 23.1213 37.6213C23.6839 37.0587 24 36.2956 24 35.5H30C30 36.2956 30.3161 37.0587 30.8787 37.6213C31.4413 38.1839 32.2044 38.5 33 38.5C33.7956 38.5 34.5587 38.1839 35.1213 37.6213C35.6839 37.0587 36 36.2956 36 35.5H37C37.2652 35.5 37.5196 35.3946 37.7071 35.2071C37.8946 35.0196 38 34.7652 38 34.5V22.5C38 21.7044 37.6839 20.9413 37.1213 20.3787C36.5587 19.8161 35.7956 19.5 35 19.5H26C25.2044 19.5 24.4413 19.8161 23.8787 20.3787C23.3161 20.9413 23 21.7044 23 22.5V24.5H21C20.5343 24.5 20.0749 24.6084 19.6584 24.8167C19.2418 25.025 18.8794 25.3274 18.6 25.7L16.2 28.9C16.1708 28.9435 16.1472 28.9905 16.13 29.04L16.07 29.15C16.0259 29.2615 16.0022 29.3801 16 29.5ZM32 35.5C32 35.3022 32.0586 35.1089 32.1685 34.9444C32.2784 34.78 32.4346 34.6518 32.6173 34.5761C32.8 34.5004 33.0011 34.4806 33.1951 34.5192C33.3891 34.5578 33.5673 34.653 33.7071 34.7929C33.847 34.9327 33.9422 35.1109 33.9808 35.3049C34.0194 35.4989 33.9996 35.7 33.9239 35.8827C33.8482 36.0654 33.72 36.2216 33.5556 36.3315C33.3911 36.4414 33.1978 36.5 33 36.5C32.7348 36.5 32.4804 36.3946 32.2929 36.2071C32.1054 36.0196 32 35.7652 32 35.5ZM25 22.5C25 22.2348 25.1054 21.9804 25.2929 21.7929C25.4804 21.6054 25.7348 21.5 26 21.5H35C35.2652 21.5 35.5196 21.6054 35.7071 21.7929C35.8946 21.9804 36 22.2348 36 22.5V33.5H35.22C34.9388 33.1906 34.5961 32.9435 34.2138 32.7743C33.8315 32.6052 33.418 32.5178 33 32.5178C32.582 32.5178 32.1685 32.6052 31.7862 32.7743C31.4039 32.9435 31.0612 33.1906 30.78 33.5H25V22.5ZM23 28.5H19L20.2 26.9C20.2931 26.7758 20.4139 26.675 20.5528 26.6056C20.6916 26.5361 20.8448 26.5 21 26.5H23V28.5ZM20 35.5C20 35.3022 20.0586 35.1089 20.1685 34.9444C20.2784 34.78 20.4346 34.6518 20.6173 34.5761C20.8 34.5004 21.0011 34.4806 21.1951 34.5192C21.3891 34.5578 21.5673 34.653 21.7071 34.7929C21.847 34.9327 21.9422 35.1109 21.9808 35.3049C22.0194 35.4989 21.9996 35.7 21.9239 35.8827C21.8482 36.0654 21.72 36.2216 21.5556 36.3315C21.3911 36.4414 21.1978 36.5 21 36.5C20.7348 36.5 20.4804 36.3946 20.2929 36.2071C20.1054 36.0196 20 35.7652 20 35.5ZM18 30.5H23V33.28C22.4098 32.7526 21.6351 32.4797 20.8447 32.5209C20.0543 32.5621 19.3121 32.914 18.78 33.5H18V30.5Z" fill="white"/>
</svg>
